<svg width="216" height="48" viewBox="0 0 216 48" fill="none" xmlns="http://www.w3.org/2000/svg">
<rect x="4" y="6" width="36" height="36" rx="12" fill="#09090B"/>
<path fill-rule="evenodd" clip-rule="evenodd" d="M17.2885 26.5248L22.3213 29.4404L32.436 23.6142L32.4353 29.4404L22.3149 35.2499L12.25 29.4315L17.2885 26.5248Z" fill="url(#paint0_linear_1096_255)"/>
<path fill-rule="evenodd" clip-rule="evenodd" d="M17.2885 26.5249V20.7122L27.3492 14.9067L22.3228 12L12.25 17.8056V29.4316L17.2885 26.5249Z" fill="url(#paint1_linear_1096_255)"/>
<path fill-rule="evenodd" clip-rule="evenodd" d="M22.3146 12L17.2882 14.899L27.3531 20.7123L32.3923 17.8057L22.3146 12Z" fill="#38F587"/>
<path fill-rule="evenodd" clip-rule="evenodd" d="M32.3928 17.8057L27.3536 20.7123V32.3512L32.3928 29.4317V17.8057Z" fill="#1AA353"/>
<path d="M53.2784 29.5V17.8636H57.4261C58.3314 17.8636 59.0814 18.0284 59.6761 18.358C60.2708 18.6875 60.7159 19.1383 61.0114 19.7102C61.3068 20.2784 61.4545 20.9186 61.4545 21.6307C61.4545 22.3466 61.3049 22.9905 61.0057 23.5625C60.7102 24.1307 60.2633 24.5814 59.6648 24.9148C59.0701 25.2443 58.322 25.4091 57.4205 25.4091H54.5682V23.9205H57.2614C57.8333 23.9205 58.2973 23.822 58.6534 23.625C59.0095 23.4242 59.2708 23.1515 59.4375 22.8068C59.6042 22.4621 59.6875 22.0701 59.6875 21.6307C59.6875 21.1913 59.6042 20.8011 59.4375 20.4602C59.2708 20.1193 59.0076 19.8523 58.6477 19.6591C58.2917 19.4659 57.822 19.3693 57.2386 19.3693H55.0341V29.5H53.2784ZM66.9432 29.6761C66.125 29.6761 65.411 29.4886 64.8011 29.1136C64.1913 28.7386 63.7178 28.214 63.3807 27.5398C63.0436 26.8655 62.875 26.0777 62.875 25.1761C62.875 24.2708 63.0436 23.4792 63.3807 22.8011C63.7178 22.1231 64.1913 21.5966 64.8011 21.2216C65.411 20.8466 66.125 20.6591 66.9432 20.6591C67.7614 20.6591 68.4754 20.8466 69.0852 21.2216C69.6951 21.5966 70.1686 22.1231 70.5057 22.8011C70.8428 23.4792 71.0114 24.2708 71.0114 25.1761C71.0114 26.0777 70.8428 26.8655 70.5057 27.5398C70.1686 28.214 69.6951 28.7386 69.0852 29.1136C68.4754 29.4886 67.7614 29.6761 66.9432 29.6761ZM66.9489 28.25C67.4792 28.25 67.9186 28.1098 68.267 27.8295C68.6155 27.5492 68.8731 27.1761 69.0398 26.7102C69.2102 26.2443 69.2955 25.7311 69.2955 25.1705C69.2955 24.6136 69.2102 24.1023 69.0398 23.6364C68.8731 23.1667 68.6155 22.7898 68.267 22.5057C67.9186 22.2216 67.4792 22.0795 66.9489 22.0795C66.4148 22.0795 65.9716 22.2216 65.6193 22.5057C65.2708 22.7898 65.0114 23.1667 64.8409 23.6364C64.6742 24.1023 64.5909 24.6136 64.5909 25.1705C64.5909 25.7311 64.6742 26.2443 64.8409 26.7102C65.0114 27.1761 65.2708 27.5492 65.6193 27.8295C65.9716 28.1098 66.4148 28.25 66.9489 28.25ZM74.5341 29.5L71.9659 20.7727H73.7216L75.4318 27.1818H75.517L77.233 20.7727H78.9886L80.6932 27.1534H80.7784L82.4773 20.7727H84.233L81.6705 29.5H79.9375L78.1648 23.1989H78.0341L76.2614 29.5H74.5341ZM89.3409 29.6761C88.4811 29.6761 87.7405 29.4924 87.1193 29.125C86.5019 28.7538 86.0246 28.233 85.6875 27.5625C85.3542 26.8883 85.1875 26.0985 85.1875 25.1932C85.1875 24.2992 85.3542 23.5114 85.6875 22.8295C86.0246 22.1477 86.4943 21.6155 87.0966 21.233C87.7027 20.8504 88.411 20.6591 89.2216 20.6591C89.714 20.6591 90.1913 20.7405 90.6534 20.9034C91.1155 21.0663 91.5303 21.322 91.8977 21.6705C92.2652 22.0189 92.5549 22.4716 92.767 23.0284C92.9792 23.5814 93.0852 24.2538 93.0852 25.0455V25.6477H86.1477V24.375H91.4205C91.4205 23.928 91.3295 23.5322 91.1477 23.1875C90.9659 22.839 90.7102 22.5644 90.3807 22.3636C90.0549 22.1629 89.6723 22.0625 89.233 22.0625C88.7557 22.0625 88.339 22.1799 87.983 22.4148C87.6307 22.6458 87.358 22.9489 87.1648 23.3239C86.9754 23.6951 86.8807 24.0985 86.8807 24.5341V25.5284C86.8807 26.1117 86.983 26.608 87.1875 27.017C87.3958 27.4261 87.6856 27.7386 88.0568 27.9545C88.428 28.1667 88.8617 28.2727 89.358 28.2727C89.6799 28.2727 89.9735 28.2273 90.2386 28.1364C90.5038 28.0417 90.733 27.9015 90.9261 27.7159C91.1193 27.5303 91.267 27.3011 91.3693 27.0284L92.9773 27.3182C92.8485 27.7917 92.6174 28.2064 92.2841 28.5625C91.9545 28.9148 91.5398 29.1894 91.0398 29.3864C90.5436 29.5795 89.9773 29.6761 89.3409 29.6761ZM94.9702 29.5V20.7727H96.6122V22.1591H96.7031C96.8622 21.6894 97.1425 21.3201 97.544 21.0511C97.9493 20.7784 98.4077 20.642 98.919 20.642C99.0251 20.642 99.1501 20.6458 99.294 20.6534C99.4418 20.661 99.5573 20.6705 99.6406 20.6818V22.3068C99.5724 22.2879 99.4512 22.267 99.277 22.2443C99.1027 22.2178 98.9285 22.2045 98.7543 22.2045C98.3527 22.2045 97.9948 22.2898 97.6804 22.4602C97.3698 22.6269 97.1236 22.8598 96.9418 23.1591C96.7599 23.4545 96.669 23.7917 96.669 24.1705V29.5H94.9702ZM104.56 29.6761C103.7 29.6761 102.959 29.4924 102.338 29.125C101.721 28.7538 101.243 28.233 100.906 27.5625C100.573 26.8883 100.406 26.0985 100.406 25.1932C100.406 24.2992 100.573 23.5114 100.906 22.8295C101.243 22.1477 101.713 21.6155 102.315 21.233C102.921 20.8504 103.63 20.6591 104.44 20.6591C104.933 20.6591 105.41 20.7405 105.872 20.9034C106.334 21.0663 106.749 21.322 107.116 21.6705C107.484 22.0189 107.774 22.4716 107.986 23.0284C108.198 23.5814 108.304 24.2538 108.304 25.0455V25.6477H101.366V24.375H106.639C106.639 23.928 106.548 23.5322 106.366 23.1875C106.185 22.839 105.929 22.5644 105.599 22.3636C105.274 22.1629 104.891 22.0625 104.452 22.0625C103.974 22.0625 103.558 22.1799 103.202 22.4148C102.849 22.6458 102.577 22.9489 102.384 23.3239C102.194 23.6951 102.099 24.0985 102.099 24.5341V25.5284C102.099 26.1117 102.202 26.608 102.406 27.017C102.615 27.4261 102.904 27.7386 103.276 27.9545C103.647 28.1667 104.08 28.2727 104.577 28.2727C104.899 28.2727 105.192 28.2273 105.457 28.1364C105.723 28.0417 105.952 27.9015 106.145 27.7159C106.338 27.5303 106.486 27.3011 106.588 27.0284L108.196 27.3182C108.067 27.7917 107.836 28.2064 107.503 28.5625C107.173 28.9148 106.759 29.1894 106.259 29.3864C105.762 29.5795 105.196 29.6761 104.56 29.6761ZM113.456 29.6705C112.751 29.6705 112.123 29.4905 111.57 29.1307C111.02 28.767 110.589 28.25 110.274 27.5795C109.964 26.9053 109.808 26.0966 109.808 25.1534C109.808 24.2102 109.965 23.4034 110.28 22.733C110.598 22.0625 111.034 21.5492 111.587 21.1932C112.14 20.8371 112.767 20.6591 113.467 20.6591C114.009 20.6591 114.445 20.75 114.774 20.9318C115.107 21.1098 115.365 21.3182 115.547 21.5568C115.732 21.7955 115.876 22.0057 115.979 22.1875H116.081V17.8636H117.78V29.5H116.121V28.142H115.979C115.876 28.3277 115.729 28.5398 115.536 28.7784C115.346 29.017 115.085 29.2254 114.751 29.4034C114.418 29.5814 113.986 29.6705 113.456 29.6705ZM113.831 28.2216C114.32 28.2216 114.732 28.0928 115.07 27.8352C115.411 27.5739 115.668 27.2121 115.842 26.75C116.02 26.2879 116.109 25.75 116.109 25.1364C116.109 24.5303 116.022 24 115.848 23.5455C115.674 23.0909 115.418 22.7367 115.081 22.483C114.744 22.2292 114.327 22.1023 113.831 22.1023C113.32 22.1023 112.893 22.2348 112.553 22.5C112.212 22.7652 111.954 23.1269 111.78 23.5852C111.609 24.0436 111.524 24.5606 111.524 25.1364C111.524 25.7197 111.611 26.2443 111.786 26.7102C111.96 27.1761 112.217 27.5455 112.558 27.8182C112.903 28.0871 113.327 28.2216 113.831 28.2216ZM124.575 29.5V17.8636H126.274V22.1875H126.376C126.475 22.0057 126.617 21.7955 126.803 21.5568C126.988 21.3182 127.246 21.1098 127.575 20.9318C127.905 20.75 128.34 20.6591 128.882 20.6591C129.587 20.6591 130.215 20.8371 130.768 21.1932C131.321 21.5492 131.755 22.0625 132.07 22.733C132.388 23.4034 132.547 24.2102 132.547 25.1534C132.547 26.0966 132.39 26.9053 132.075 27.5795C131.761 28.25 131.329 28.767 130.78 29.1307C130.231 29.4905 129.604 29.6705 128.899 29.6705C128.369 29.6705 127.935 29.5814 127.598 29.4034C127.265 29.2254 127.003 29.017 126.814 28.7784C126.625 28.5398 126.479 28.3277 126.376 28.142H126.234V29.5H124.575ZM126.24 25.1364C126.24 25.75 126.329 26.2879 126.507 26.75C126.685 27.2121 126.943 27.5739 127.28 27.8352C127.617 28.0928 128.03 28.2216 128.518 28.2216C129.026 28.2216 129.45 28.0871 129.791 27.8182C130.132 27.5455 130.39 27.1761 130.564 26.7102C130.742 26.2443 130.831 25.7197 130.831 25.1364C130.831 24.5606 130.744 24.0436 130.57 23.5852C130.399 23.1269 130.142 22.7652 129.797 22.5C129.456 22.2348 129.03 22.1023 128.518 22.1023C128.026 22.1023 127.609 22.2292 127.268 22.483C126.931 22.7367 126.676 23.0909 126.501 23.5455C126.327 24 126.24 24.5303 126.24 25.1364ZM135.232 32.7727C134.978 32.7727 134.747 32.7519 134.538 32.7102C134.33 32.6723 134.175 32.6307 134.072 32.5852L134.482 31.1932C134.792 31.2765 135.069 31.3125 135.311 31.3011C135.554 31.2898 135.768 31.1989 135.953 31.0284C136.143 30.858 136.309 30.5795 136.453 30.1932L136.663 29.6136L133.47 20.7727H135.288L137.499 27.5455H137.589L139.8 20.7727H141.624L138.027 30.6648C137.86 31.1193 137.648 31.5038 137.391 31.8182C137.133 32.1364 136.826 32.375 136.47 32.5341C136.114 32.6932 135.701 32.7727 135.232 32.7727ZM153.938 20.9205C153.877 20.3826 153.627 19.9659 153.188 19.6705C152.748 19.3712 152.195 19.2216 151.528 19.2216C151.051 19.2216 150.638 19.2973 150.29 19.4489C149.941 19.5966 149.67 19.8011 149.477 20.0625C149.288 20.3201 149.193 20.6136 149.193 20.9432C149.193 21.2197 149.258 21.4583 149.386 21.6591C149.519 21.8598 149.691 22.0284 149.903 22.1648C150.119 22.2973 150.35 22.4091 150.597 22.5C150.843 22.5871 151.08 22.6591 151.307 22.7159L152.443 23.0114C152.814 23.1023 153.195 23.2254 153.585 23.3807C153.975 23.536 154.337 23.7405 154.67 23.9943C155.004 24.2481 155.273 24.5625 155.477 24.9375C155.686 25.3125 155.79 25.7614 155.79 26.2841C155.79 26.9432 155.619 27.5284 155.278 28.0398C154.941 28.5511 154.451 28.9545 153.807 29.25C153.167 29.5455 152.392 29.6932 151.483 29.6932C150.612 29.6932 149.858 29.5549 149.222 29.2784C148.585 29.0019 148.087 28.6098 147.727 28.1023C147.367 27.5909 147.169 26.9848 147.131 26.2841H148.892C148.926 26.7045 149.063 27.0549 149.301 27.3352C149.544 27.6117 149.852 27.8182 150.227 27.9545C150.606 28.0871 151.021 28.1534 151.472 28.1534C151.968 28.1534 152.409 28.0758 152.795 27.9205C153.186 27.7614 153.492 27.5417 153.716 27.2614C153.939 26.9773 154.051 26.6458 154.051 26.267C154.051 25.9223 153.953 25.6402 153.756 25.4205C153.563 25.2008 153.299 25.0189 152.966 24.875C152.636 24.7311 152.263 24.6042 151.847 24.4943L150.472 24.1193C149.54 23.8655 148.801 23.4924 148.256 23C147.714 22.5076 147.443 21.8561 147.443 21.0455C147.443 20.375 147.625 19.7898 147.989 19.2898C148.352 18.7898 148.845 18.4015 149.466 18.125C150.087 17.8447 150.788 17.7045 151.568 17.7045C152.356 17.7045 153.051 17.8428 153.653 18.1193C154.259 18.3958 154.737 18.7765 155.085 19.2614C155.434 19.7424 155.616 20.2955 155.631 20.9205H153.938ZM161.428 29.6761C160.583 29.6761 159.856 29.4848 159.246 29.1023C158.64 28.7159 158.174 28.1837 157.848 27.5057C157.522 26.8277 157.359 26.0511 157.359 25.1761C157.359 24.2898 157.526 23.5076 157.859 22.8295C158.193 22.1477 158.662 21.6155 159.268 21.233C159.875 20.8504 160.589 20.6591 161.411 20.6591C162.073 20.6591 162.664 20.7822 163.183 21.0284C163.702 21.2708 164.121 21.6117 164.439 22.0511C164.761 22.4905 164.952 23.0038 165.013 23.5909H163.359C163.268 23.1818 163.06 22.8295 162.734 22.5341C162.412 22.2386 161.981 22.0909 161.439 22.0909C160.965 22.0909 160.551 22.2159 160.195 22.4659C159.842 22.7121 159.568 23.0644 159.371 23.5227C159.174 23.9773 159.075 24.5152 159.075 25.1364C159.075 25.7727 159.172 26.322 159.365 26.7841C159.558 27.2462 159.831 27.6042 160.183 27.858C160.539 28.1117 160.958 28.2386 161.439 28.2386C161.761 28.2386 162.053 28.1799 162.314 28.0625C162.579 27.9413 162.801 27.7689 162.979 27.5455C163.161 27.322 163.287 27.053 163.359 26.7386H165.013C164.952 27.303 164.768 27.8068 164.462 28.25C164.155 28.6932 163.744 29.0417 163.229 29.2955C162.717 29.5492 162.117 29.6761 161.428 29.6761ZM170.591 29.6761C169.731 29.6761 168.991 29.4924 168.369 29.125C167.752 28.7538 167.275 28.233 166.938 27.5625C166.604 26.8883 166.438 26.0985 166.438 25.1932C166.438 24.2992 166.604 23.5114 166.938 22.8295C167.275 22.1477 167.744 21.6155 168.347 21.233C168.953 20.8504 169.661 20.6591 170.472 20.6591C170.964 20.6591 171.441 20.7405 171.903 20.9034C172.366 21.0663 172.78 21.322 173.148 21.6705C173.515 22.0189 173.805 22.4716 174.017 23.0284C174.229 23.5814 174.335 24.2538 174.335 25.0455V25.6477H167.398V24.375H172.67C172.67 23.928 172.58 23.5322 172.398 23.1875C172.216 22.839 171.96 22.5644 171.631 22.3636C171.305 22.1629 170.922 22.0625 170.483 22.0625C170.006 22.0625 169.589 22.1799 169.233 22.4148C168.881 22.6458 168.608 22.9489 168.415 23.3239C168.225 23.6951 168.131 24.0985 168.131 24.5341V25.5284C168.131 26.1117 168.233 26.608 168.438 27.017C168.646 27.4261 168.936 27.7386 169.307 27.9545C169.678 28.1667 170.112 28.2727 170.608 28.2727C170.93 28.2727 171.223 28.2273 171.489 28.1364C171.754 28.0417 171.983 27.9015 172.176 27.7159C172.369 27.5303 172.517 27.3011 172.619 27.0284L174.227 27.3182C174.098 27.7917 173.867 28.2064 173.534 28.5625C173.205 28.9148 172.79 29.1894 172.29 29.3864C171.794 29.5795 171.227 29.6761 170.591 29.6761ZM177.919 24.3182V29.5H176.22V20.7727H177.851V22.1932H177.959C178.16 21.7311 178.474 21.3598 178.902 21.0795C179.334 20.7992 179.877 20.6591 180.533 20.6591C181.127 20.6591 181.648 20.7841 182.095 21.0341C182.542 21.2803 182.889 21.6477 183.135 22.1364C183.381 22.625 183.504 23.2292 183.504 23.9489V29.5H181.805V24.1534C181.805 23.5208 181.641 23.0265 181.311 22.6705C180.982 22.3106 180.529 22.1307 179.953 22.1307C179.559 22.1307 179.209 22.2159 178.902 22.3864C178.599 22.5568 178.358 22.8068 178.18 23.1364C178.006 23.4621 177.919 23.8561 177.919 24.3182ZM189.544 29.6761C188.684 29.6761 187.944 29.4924 187.322 29.125C186.705 28.7538 186.228 28.233 185.891 27.5625C185.557 26.8883 185.391 26.0985 185.391 25.1932C185.391 24.2992 185.557 23.5114 185.891 22.8295C186.228 22.1477 186.697 21.6155 187.3 21.233C187.906 20.8504 188.614 20.6591 189.425 20.6591C189.917 20.6591 190.394 20.7405 190.857 20.9034C191.319 21.0663 191.733 21.322 192.101 21.6705C192.468 22.0189 192.758 22.4716 192.97 23.0284C193.182 23.5814 193.288 24.2538 193.288 25.0455V25.6477H186.351V24.375H191.624C191.624 23.928 191.533 23.5322 191.351 23.1875C191.169 22.839 190.913 22.5644 190.584 22.3636C190.258 22.1629 189.875 22.0625 189.436 22.0625C188.959 22.0625 188.542 22.1799 188.186 22.4148C187.834 22.6458 187.561 22.9489 187.368 23.3239C187.179 23.6951 187.084 24.0985 187.084 24.5341V25.5284C187.084 26.1117 187.186 26.608 187.391 27.017C187.599 27.4261 187.889 27.7386 188.26 27.9545C188.631 28.1667 189.065 28.2727 189.561 28.2727C189.883 28.2727 190.177 28.2273 190.442 28.1364C190.707 28.0417 190.936 27.9015 191.129 27.7159C191.322 27.5303 191.47 27.3011 191.572 27.0284L193.18 27.3182C193.052 27.7917 192.821 28.2064 192.487 28.5625C192.158 28.9148 191.743 29.1894 191.243 29.3864C190.747 29.5795 190.18 29.6761 189.544 29.6761ZM195.173 29.5V20.7727H196.815V22.1591H196.906C197.065 21.6894 197.346 21.3201 197.747 21.0511C198.152 20.7784 198.611 20.642 199.122 20.642C199.228 20.642 199.353 20.6458 199.497 20.6534C199.645 20.661 199.76 20.6705 199.844 20.6818V22.3068C199.776 22.2879 199.654 22.267 199.48 22.2443C199.306 22.2178 199.132 22.2045 198.957 22.2045C198.556 22.2045 198.198 22.2898 197.884 22.4602C197.573 22.6269 197.327 22.8598 197.145 23.1591C196.963 23.4545 196.872 23.7917 196.872 24.1705V29.5H195.173ZM202.653 32.7727C202.4 32.7727 202.169 32.7519 201.96 32.7102C201.752 32.6723 201.597 32.6307 201.494 32.5852L201.903 31.1932C202.214 31.2765 202.491 31.3125 202.733 31.3011C202.975 31.2898 203.189 31.1989 203.375 31.0284C203.564 30.858 203.731 30.5795 203.875 30.1932L204.085 29.6136L200.892 20.7727H202.71L204.92 27.5455H205.011L207.222 20.7727H209.045L205.449 30.6648C205.282 31.1193 205.07 31.5038 204.812 31.8182C204.555 32.1364 204.248 32.375 203.892 32.5341C203.536 32.6932 203.123 32.7727 202.653 32.7727Z" fill="#09090B"/>
<defs>
<linearGradient id="paint0_linear_1096_255" x1="19.802" y1="32.3415" x2="31.1015" y2="24.6264" gradientUnits="userSpaceOnUse">
<stop stop-color="#D9D9D9"/>
<stop offset="1"/>
</linearGradient>
<linearGradient id="paint1_linear_1096_255" x1="16.2282" y1="19.3773" x2="25.693" y2="17.3888" gradientUnits="userSpaceOnUse">
<stop stop-color="#A3A3A3"/>
<stop offset="1"/>
</linearGradient>
</defs>
</svg>
